<svg height="64" viewBox="0 0 64 64" width="64" xmlns="http://www.w3.org/2000/svg"><g stroke="#000"><path d="m29 44c0 5-2 15-2 20-1 0-5 0-5 0 0-3 1-18 1-20 2-1 4 1 6 0z" fill="#695d69"/><path d="m29 44c0-2 4-5 2-9-1-4-4-2-6 1-2 2-2 5-2 8 3 1 6 0 6 0z" fill="#d18251"/><path d="m18 11c1 5 4 2 6-4 1-2 3-2 1 0-1 2-3 10 0 10 3-3 4-8 4-12s-5-5-7-3c-3 2-3 6-4 9z" fill="#adff1e"/><path d="m30 34c-3-2-7-5-7-8-1-4-2-9 2-11 3-2 8 1 9 4 2 3 3 8 0 11-1 1-2 3-4 4z" fill="#38b303"/><path d="m16 34c1 3 7 4 7 0-1-3-1-6-2-10 1-6-1-12-6-13-4-1-7-9-11-7-1 3 3 10 4 14s1 5 3 10 3 4 5 6z" fill="#f2e600"/><path d="m25 3c-4-1-2 8-5 11-1 4 5 4 5 0 1-4 3-10 0-11z" fill="#869265"/><path d="m4 4c1 5 6 5 10 7 6 2 7 7 7 13 0 3 4 26 5 5 0-4-2-8-2-12-1-4-5-8-7-11s-5-6-9-5c-1 0-4 1-4 3z" fill="#92f492"/><path d="m27 32c-5-1-10 0-14 3-4 2-9 4-10 9-1 3 3 6 7 4 3-2 7-2 10-5s8-6 8-10c0 0-1-1-1-1z" fill="#ccefb4"/><path d="m30 35c-2 4 4 6 7 5 3 0 6-3 8-7 4-5 10-10 12-17 0-4-4-5-7-4-4 1-7 5-9 8-4 5-7 11-11 15z" fill="#83e269"/><path d="m36 32c2-2 3-7 7-8 3 0 8-4 8 1-2 3-6 7-8 11-2 0-8-2-7-4z" fill="#4a4b88"/><path d="m40 39c4-2 5-7 8-9 5-1 9 0 13 4 4 3 1 10-4 9-7 0-16-4-17-4z" fill="#e0ff93"/><path d="m40 39h-9c-2 4-1 11 1 15 3 3 6-7 7-10 0-3 0-1 0-5z" fill="#ddd9da"/><path d="m39 44c-1 3-4 6-7 10 1 2 2 5 5 6 4 1 9-3 7-7s-3-6-5-9z" fill="#fdfa52"/></g></svg>